<?xml version="1.0" standalone="no"?>
<!DOCTYPE svg PUBLIC "-//W3C//DTD SVG 20010904//EN"
 "http://www.w3.org/TR/2001/REC-SVG-20010904/DTD/svg10.dtd">
<svg version="1.0" xmlns="http://www.w3.org/2000/svg"
 width="1024.000000pt" height="1024.000000pt" viewBox="0 0 1024.000000 1024.000000"
 preserveAspectRatio="xMidYMid meet">

<g transform="translate(0.000000,1024.000000) scale(0.100000,-0.100000)"
fill="#000000" stroke="none">
<path d="M4087 9600 c-199 -25 -356 -73 -542 -165 -296 -147 -528 -365 -820
-770 -178 -248 -268 -364 -386 -495 -212 -238 -323 -410 -412 -636 -77 -195
-117 -414 -117 -643 0 -353 114 -775 327 -1207 l69 -141 -57 -55 c-63 -62
-118 -163 -144 -263 -32 -127 -16 -373 37 -543 52 -170 190 -409 306 -528 163
-170 367 -264 542 -252 l68 5 17 -91 c69 -382 194 -656 422 -926 86 -103 325
-341 466 -465 51 -46 90 -88 94 -104 4 -14 7 -125 7 -246 1 -175 -3 -238 -17
-308 -44 -210 -102 -309 -231 -392 -47 -30 -56 -40 -56 -65 0 -21 8 -35 26
-47 25 -16 28 -16 73 8 65 34 170 143 209 216 80 151 105 285 106 555 1 127 4
194 11 190 6 -3 30 -22 55 -42 140 -116 328 -224 483 -279 170 -60 269 -75
497 -75 179 -1 218 2 309 22 242 55 462 160 656 317 33 26 65 51 70 56 7 5 10
-53 11 -169 1 -332 59 -540 189 -680 102 -111 201 -153 226 -98 16 33 -1 59
-64 99 -144 93 -213 248 -237 533 -12 145 -6 356 11 409 7 19 69 83 176 180
253 230 442 442 561 630 43 69 113 221 150 325 26 75 95 353 104 419 3 23 6
24 78 22 192 -5 411 105 564 285 153 177 274 427 311 642 20 112 20 320 0 397
-25 99 -81 202 -144 263 l-56 55 76 154 c117 235 182 408 244 653 53 209 67
301 72 492 6 208 -9 339 -62 531 -78 286 -215 520 -468 806 -146 164 -178 204
-272 336 -335 470 -515 665 -765 827 -514 334 -1113 355 -1574 55 -46 -31
-102 -71 -123 -91 l-39 -35 -50 41 c-155 129 -359 226 -565 268 -114 23 -320
33 -422 20z m1608 -1979 c168 -20 443 -66 452 -75 3 -3 18 -119 34 -258 42
-363 77 -535 143 -708 35 -89 100 -222 137 -277 l21 -33 -144 0 c-289 0 -621
-92 -685 -189 -40 -59 -25 -128 32 -156 47 -22 63 -20 201 25 380 121 690 121
942 0 106 -51 139 -59 160 -38 20 20 14 64 -22 151 -27 65 -76 216 -76 235 0
2 28 -39 62 -90 78 -116 198 -237 306 -308 l83 -55 -3 -228 c-2 -125 -1 -227
1 -227 3 0 19 5 37 12 26 9 36 9 49 -2 28 -24 14 -53 -40 -80 l-50 -25 -7
-245 c-6 -200 -13 -281 -38 -445 -139 -888 -178 -1061 -287 -1285 -122 -249
-299 -457 -673 -794 -414 -373 -614 -492 -940 -562 -118 -25 -408 -25 -534 0
-312 61 -496 168 -895 520 -378 333 -587 574 -706 813 -99 199 -138 338 -209
748 -94 535 -116 700 -126 915 -14 312 -14 341 8 333 9 -3 14 -3 11 1 -4 4
-19 9 -34 12 -46 8 -105 43 -105 62 1 43 18 48 87 27 l22 -7 -6 228 -5 229 83
55 c112 72 233 194 308 309 33 51 61 89 61 84 0 -23 -55 -194 -81 -251 -43
-95 -37 -142 18 -142 13 0 63 20 111 44 255 128 596 128 976 0 113 -38 146
-41 186 -17 76 45 62 150 -27 206 -126 79 -387 137 -624 138 l-148 0 23 38
c45 71 123 236 150 316 60 179 91 343 131 694 14 124 27 226 29 228 9 9 301
55 461 73 249 27 258 28 635 25 264 -2 371 -7 505 -24z m-3152 -2149 c26 -15
36 -33 62 -117 18 -55 48 -150 67 -212 l36 -112 -67 68 c-81 82 -156 121 -243
128 -76 5 -127 -17 -143 -61 -8 -24 -6 -31 14 -47 21 -17 25 -17 51 -4 67 35
148 7 241 -82 87 -83 88 -86 39 -134 -115 -112 -133 -321 -39 -462 17 -26 43
-54 58 -61 52 -27 100 21 67 67 -56 77 -67 99 -76 150 -5 31 -6 73 -3 94 8 51
47 128 75 148 21 14 24 14 33 -1 6 -9 34 -53 63 -98 l54 -81 52 -315 c29 -173
51 -319 48 -324 -2 -4 -41 -6 -86 -4 -152 9 -262 65 -401 203 -101 99 -167
193 -231 330 -206 436 -145 848 139 941 53 17 149 10 190 -14z m5363 7 c370
-139 300 -874 -123 -1279 -133 -128 -266 -190 -410 -190 -49 0 -63 3 -63 15 0
8 23 152 50 321 48 295 52 309 83 353 19 25 46 67 61 94 15 26 33 47 41 47 19
0 64 -60 81 -107 29 -82 7 -196 -50 -264 -31 -37 -33 -73 -5 -93 30 -21 58 -8
101 49 53 70 71 138 66 243 -5 105 -28 161 -93 231 l-46 49 57 61 c95 103 181
139 257 107 45 -18 65 -12 74 22 8 32 -5 53 -48 74 -98 50 -255 -10 -360 -137
-22 -26 -39 -42 -39 -36 0 18 130 415 139 424 16 16 86 36 128 37 23 0 68 -10
99 -21z"/>
<path d="M3841 5946 c4 -4 60 -9 125 -10 66 -2 135 -6 154 -10 35 -6 35 -6 5
5 -33 12 -294 25 -284 15z"/>
<path d="M6151 5939 c-59 -11 -77 -21 -26 -13 22 3 94 9 160 13 l120 8 -105 0
c-58 1 -125 -3 -149 -8z"/>
<path d="M6448 5933 c7 -3 16 -2 19 1 4 3 -2 6 -13 5 -11 0 -14 -3 -6 -6z"/>
<path d="M6498 5923 c7 -3 16 -2 19 1 4 3 -2 6 -13 5 -11 0 -14 -3 -6 -6z"/>
<path d="M3535 5855 c-50 -25 -103 -57 -120 -72 l-30 -25 36 21 c29 17 42 19
63 11 14 -5 26 -12 26 -16 0 -3 -6 -4 -13 -1 -7 3 -13 -3 -13 -14 0 -17 2 -17
34 3 18 11 63 33 100 49 47 20 60 29 42 29 -24 1 -60 21 -60 33 0 3 8 4 18 2
11 -2 19 3 19 11 0 20 -2 19 -102 -31z m25 -50 c-30 -17 -40 -18 -40 -4 0 5 4
8 9 4 5 -3 12 -1 16 5 3 5 14 10 23 10 12 -1 10 -5 -8 -15z"/>
<path d="M3928 5883 c7 -3 16 -2 19 1 4 3 -2 6 -13 5 -11 0 -14 -3 -6 -6z"/>
<path d="M6186 5879 c-32 -5 -61 -11 -64 -14 -10 -9 112 7 123 16 5 5 7 8 5 8
-3 -1 -32 -5 -64 -10z"/>
<path d="M6278 5883 c12 -2 32 -2 45 0 12 2 2 4 -23 4 -25 0 -35 -2 -22 -4z"/>
<path d="M6659 5873 c27 -20 101 -54 101 -48 0 3 -28 18 -62 35 -35 17 -52 22
-39 13z"/>
<path d="M4023 5873 c9 -2 23 -2 30 0 6 3 -1 5 -18 5 -16 0 -22 -2 -12 -5z"/>
<path d="M4319 5855 c23 -14 47 -25 52 -25 5 0 9 -4 9 -10 0 -5 6 -10 13 -10
7 0 30 -12 52 -26 l40 -25 -30 25 c-30 26 -156 96 -171 96 -5 0 11 -11 35 -25z"/>
<path d="M6378 5873 c6 -2 18 -2 25 0 6 3 1 5 -13 5 -14 0 -19 -2 -12 -5z"/>
<path d="M3768 5863 c7 -3 16 -2 19 1 4 3 -2 6 -13 5 -11 0 -14 -3 -6 -6z"/>
<path d="M4088 5863 c6 -2 18 -2 25 0 6 3 1 5 -13 5 -14 0 -19 -2 -12 -5z"/>
<path d="M5872 5839 c-30 -17 -52 -32 -50 -34 1 -2 14 -5 28 -7 14 -1 30 -9
36 -17 8 -11 21 -8 70 18 32 17 48 28 34 24 -14 -3 -33 -7 -42 -7 -10 0 -18
-3 -18 -7 0 -4 -7 -10 -16 -13 -8 -3 -12 -2 -9 3 3 6 -3 15 -12 21 -12 7 -13
10 -3 7 8 -2 23 5 33 16 32 37 19 36 -51 -4z"/>
<path d="M4295 5794 c39 -20 86 -47 105 -61 22 -16 17 -9 -15 21 -27 25 -44
45 -37 46 6 0 12 4 12 8 0 4 -17 8 -37 7 -21 0 -51 3 -68 8 -16 4 2 -9 40 -29z"/>
<path d="M6630 5810 c20 -13 33 -13 25 0 -3 6 -14 10 -23 10 -15 0 -15 -2 -2
-10z"/>
<path d="M5862 5759 c-12 -19 -11 -19 8 -9 11 6 18 15 15 21 -8 12 -8 12 -23
-12z"/>
<path d="M4508 5738 c16 -16 16 -52 0 -42 -8 5 -9 2 -5 -9 9 -23 -4 -21 -39 4
-16 11 -11 5 11 -14 21 -20 43 -33 47 -31 5 3 6 9 3 14 -3 5 0 12 6 16 8 5 9
3 4 -6 -5 -9 -2 -10 13 -6 11 4 23 2 27 -4 3 -5 16 -15 28 -21 12 -6 -5 16
-38 50 -33 33 -62 61 -64 61 -3 0 0 -5 7 -12z"/>
<path d="M3449 5723 c-13 -16 -12 -17 4 -4 9 7 17 15 17 17 0 8 -8 3 -21 -13z"/>
<path d="M5668 5682 c-31 -33 -66 -76 -78 -94 -17 -25 -13 -23 15 10 41 46 56
53 47 20 -3 -14 -2 -19 6 -14 18 11 14 -5 -9 -44 -12 -19 -17 -30 -12 -25 5 6
43 46 83 89 41 44 68 75 60 71 -19 -11 -51 -14 -45 -4 3 4 1 17 -3 29 -8 20
-12 18 -64 -38z"/>
<path d="M5819 5723 c-13 -16 -12 -17 4 -4 9 7 17 15 17 17 0 8 -8 3 -21 -13z"/>
<path d="M3281 5664 c-29 -31 -65 -77 -82 -103 -25 -38 -26 -41 -5 -16 18 21
33 29 51 27 15 -2 25 2 25 9 0 7 2 10 5 7 3 -3 -11 -36 -31 -74 -43 -82 -41
-81 19 8 25 36 43 69 39 74 -4 4 -2 4 4 1 6 -3 37 22 70 56 32 34 43 48 24 31
-19 -18 -45 -37 -57 -43 -18 -9 -23 -8 -28 9 -4 13 0 31 9 45 26 39 12 29 -43
-31z"/>
<path d="M6930 5688 c8 -12 67 -81 95 -113 25 -28 25 -27 -3 15 -17 25 -45 59
-63 75 -19 17 -32 27 -29 23z"/>
<path d="M4525 5640 c-5 -7 5 -24 25 -44 l32 -31 -16 30 c-27 52 -33 59 -41
45z"/>
<path d="M6920 5606 c0 -7 59 -85 83 -111 13 -13 -1 12 -25 47 -11 16 -16 34
-12 40 4 7 3 10 -1 5 -5 -4 -17 0 -27 10 -10 9 -18 13 -18 9z"/>
<path d="M4691 5519 c6 -12 15 -35 20 -51 7 -25 6 -28 -6 -18 -11 9 -12 7 -8
-10 4 -16 2 -19 -11 -14 -9 3 -16 9 -16 13 0 3 -9 17 -20 31 -14 17 -9 1 13
-50 19 -41 39 -86 45 -100 10 -23 10 -23 10 13 -1 21 4 43 11 50 10 9 12 9 9
-3 -2 -8 3 -14 10 -15 8 0 20 -13 28 -30 12 -25 13 -26 8 -5 -7 31 -91 210
-99 210 -3 0 -1 -10 6 -21z"/>
<path d="M5505 5447 c-18 -40 -36 -86 -39 -102 -3 -17 -3 -23 0 -15 11 23 48
67 41 48 -3 -10 -2 -20 3 -23 6 -4 11 0 11 7 1 7 4 1 8 -13 5 -23 9 -18 38 48
20 48 26 69 15 61 -12 -10 -16 -10 -19 0 -3 6 -11 12 -19 12 -10 0 -11 6 -4
25 20 53 -3 22 -35 -48z"/>
<path d="M3970 5474 c-76 -33 -130 -113 -150 -224 -38 -207 98 -411 248 -371
125 34 203 212 167 382 -23 111 -72 182 -147 214 -46 19 -73 19 -118 -1z"/>
<path d="M6140 5468 c-97 -49 -145 -159 -138 -313 3 -74 9 -102 31 -147 109
-223 344 -156 388 110 19 117 -9 227 -79 304 -64 70 -125 84 -202 46z"/>
<path d="M3182 5395 c-17 -37 -14 -45 4 -12 9 16 14 31 11 33 -2 2 -9 -7 -15
-21z"/>
<path d="M2870 5365 c7 -8 16 -12 21 -9 5 3 9 -1 9 -9 0 -16 37 -30 53 -20 5
3 3 10 -4 15 -10 7 -3 8 21 4 l35 -5 -35 19 c-19 10 -52 19 -74 20 -33 0 -37
-2 -26 -15z"/>
<path d="M7210 5335 c-14 -8 -19 -14 -10 -14 8 0 24 6 34 14 25 19 9 19 -24 0z"/>
<path d="M5098 5333 c17 -2 47 -2 65 0 17 2 3 4 -33 4 -36 0 -50 -2 -32 -4z"/>
<path d="M4920 5308 c-62 -20 -63 -22 -35 -29 17 -3 26 -7 20 -8 -5 -1 -4 -5
3 -10 11 -7 9 -13 -8 -29 l-23 -21 53 20 c29 11 84 23 124 27 l71 8 -64 8
c-36 4 -74 14 -85 22 -18 12 -18 14 -3 14 9 0 17 -4 17 -10 0 -5 11 -9 24 -8
27 2 25 17 -2 19 -11 1 -8 4 8 9 24 8 24 8 -5 8 -16 1 -59 -9 -95 -20z m60
-34 c0 -8 -19 -13 -24 -6 -3 5 1 9 9 9 8 0 15 -2 15 -3z"/>
<path d="M5248 5323 c7 -3 16 -2 19 1 4 3 -2 6 -13 5 -11 0 -14 -3 -6 -6z"/>
<path d="M5285 5312 c16 -11 19 -53 3 -51 -54 7 -55 -5 -3 -20 33 -9 71 -23
85 -31 24 -13 24 -12 8 6 -16 19 -16 20 5 34 12 8 26 13 30 12 5 -1 6 2 3 7
-4 5 -31 19 -62 30 -55 21 -88 27 -69 13z m65 -38 c0 -8 -19 -13 -24 -6 -3 5
1 9 9 9 8 0 15 -2 15 -3z"/>
<path d="M7206 5298 c-20 -8 -25 -13 -15 -19 11 -6 10 -11 -4 -27 -18 -20 -21
-61 -6 -102 6 -19 8 -10 5 32 l-3 56 56 25 c47 21 51 24 24 22 -24 -3 -30 0
-26 11 3 8 4 14 2 13 -2 0 -17 -5 -33 -11z"/>
<path d="M2961 5291 c-8 -5 7 -16 43 -31 l55 -22 -4 -66 -4 -67 10 63 c11 62
3 92 -23 92 -12 0 -39 26 -33 32 8 7 -31 6 -44 -1z"/>
<path d="M5168 5263 c12 -2 30 -2 40 0 9 3 -1 5 -23 4 -22 0 -30 -2 -17 -4z"/>
<path d="M7106 5235 c4 -22 10 -85 14 -140 l7 -100 3 80 c1 44 1 85 0 90 -1 6
-4 24 -5 41 -1 17 -8 39 -14 50 -10 16 -11 12 -5 -21z"/>
<path d="M3131 5244 c0 -11 3 -14 6 -6 3 7 2 16 -1 19 -3 4 -6 -2 -5 -13z"/>
<path d="M3122 5190 c0 -19 2 -27 5 -17 2 9 2 25 0 35 -3 9 -5 1 -5 -18z"/>
<path d="M4742 5145 c0 -16 2 -22 5 -12 2 9 2 23 0 30 -3 6 -5 -1 -5 -18z"/>
<path d="M4808 5118 c-2 -29 -1 -78 3 -108 5 -45 6 -36 8 53 1 114 -4 140 -11
55z"/>
<path d="M5425 5045 c2 -66 8 -133 14 -150 9 -27 10 -25 5 15 -3 25 -9 92 -14
150 l-9 105 4 -120z"/>
<path d="M3113 5095 c0 -33 2 -45 4 -27 2 18 2 45 0 60 -2 15 -4 0 -4 -33z"/>
<path d="M7185 5090 c3 -19 8 -36 11 -39 9 -9 3 45 -6 59 -8 11 -9 5 -5 -20z"/>
<path d="M4752 5080 c0 -19 2 -27 5 -17 2 9 2 25 0 35 -3 9 -5 1 -5 -18z"/>
<path d="M4912 5058 c-7 -7 -12 -33 -12 -58 0 -176 -42 -408 -111 -611 -35
-104 -49 -161 -49 -200 0 -142 128 -271 312 -314 116 -27 188 -16 188 28 0 42
-15 51 -99 58 -94 8 -169 39 -230 95 -81 72 -90 133 -41 261 66 171 107 360
120 562 9 124 8 148 -5 168 -17 25 -53 31 -73 11z"/>
<path d="M4742 4990 c0 -14 2 -19 5 -12 2 6 2 18 0 25 -3 6 -5 1 -5 -13z"/>
<path d="M5492 4975 c0 -16 2 -22 5 -12 2 9 2 23 0 30 -3 6 -5 -1 -5 -18z"/>
<path d="M7181 4954 c0 -11 3 -14 6 -6 3 7 2 16 -1 19 -3 4 -6 -2 -5 -13z"/>
<path d="M4802 4925 c0 -16 2 -22 5 -12 2 9 2 23 0 30 -3 6 -5 -1 -5 -18z"/>
<path d="M7111 4924 c0 -11 3 -14 6 -6 3 7 2 16 -1 19 -3 4 -6 -2 -5 -13z"/>
<path d="M3131 4885 c0 -11 4 -29 8 -40 5 -12 4 -26 -3 -34 -8 -11 -8 -13 0
-8 12 7 24 -13 24 -38 0 -8 -10 -19 -22 -26 -18 -9 -20 -9 -15 4 3 9 -1 18 -9
21 -19 7 -12 -18 26 -94 32 -63 73 -120 46 -63 -12 24 -13 33 -3 36 9 4 9 6 0
6 -7 1 -10 8 -6 17 4 10 -1 17 -15 21 -18 4 -38 31 -30 38 9 9 36 8 35 0 -1
-5 -6 -9 -12 -7 -5 2 -1 -6 9 -17 11 -12 24 -21 30 -21 5 0 20 -12 33 -27 15
-19 11 -6 -14 41 -20 39 -47 102 -59 140 -13 39 -23 62 -23 51z"/>
<path d="M7171 4884 c0 -11 3 -14 6 -6 3 7 2 16 -1 19 -3 4 -6 -2 -5 -13z"/>
<path d="M4721 4865 c-1 -11 -17 -58 -36 -105 -18 -47 -27 -76 -19 -66 7 11
14 25 14 30 0 6 9 0 19 -14 18 -22 18 -27 5 -59 -8 -19 -12 -36 -10 -39 5 -5
59 100 71 137 6 21 5 22 -8 10 -8 -8 -13 -17 -11 -20 2 -4 -7 -9 -21 -11 -17
-4 -25 -1 -25 9 0 8 5 11 13 7 9 -5 9 -4 0 6 -8 9 -8 24 3 62 9 27 13 55 10
61 -2 7 -5 3 -5 -8z m9 -155 c0 -5 -5 -10 -11 -10 -5 0 -7 5 -4 10 3 6 8 10
11 10 2 0 4 -4 4 -10z"/>
<path d="M5451 4834 c0 -11 3 -14 6 -6 3 7 2 16 -1 19 -3 4 -6 -2 -5 -13z"/>
<path d="M7081 4808 c-7 -24 -27 -70 -45 -104 l-32 -61 32 7 c37 9 45 5 37
-18 -4 -14 -1 -13 11 2 22 27 78 165 72 179 -2 7 -5 4 -5 -6 -1 -11 -5 -15
-13 -11 -7 5 -9 2 -6 -8 4 -8 2 -21 -3 -29 -8 -12 -10 -12 -19 1 -6 9 -10 10
-10 3 0 -6 5 -15 11 -18 7 -5 5 -15 -5 -31 -9 -13 -16 -30 -16 -39 0 -8 -5
-15 -10 -15 -13 0 -9 32 5 42 6 4 -1 8 -14 8 l-24 0 20 23 c17 18 41 117 29
117 -1 0 -8 -19 -15 -42z m-23 -130 c-2 -6 -10 -13 -16 -14 -7 -1 -8 0 -2 3 5
2 8 9 4 14 -3 5 0 9 6 9 7 0 10 -5 8 -12z"/>
<path d="M3081 4825 c1 -19 18 -51 18 -35 0 8 -4 22 -9 30 -5 8 -9 11 -9 5z"/>
<path d="M4776 4815 c-3 -9 -6 -22 -5 -28 0 -7 5 -1 10 12 5 13 8 26 5 28 -2
2 -6 -3 -10 -12z"/>
<path d="M5541 4782 c-1 -7 8 -30 19 -51 10 -21 18 -40 16 -42 -2 -2 6 -13 16
-24 16 -16 14 -7 -9 40 -17 33 -33 67 -36 75 -4 10 -6 11 -6 2z"/>
<path d="M5480 4745 c0 -15 82 -162 106 -190 l26 -30 -22 33 c-50 75 -70 125
-57 141 11 14 10 14 -5 2 -16 -12 -18 -11 -18 3 0 10 -7 24 -15 32 -8 9 -15
12 -15 9z"/>
<path d="M5630 4606 c0 -2 8 -10 18 -17 15 -13 16 -12 3 4 -13 16 -21 21 -21
13z"/>
<path d="M7045 4584 c-9 -15 -12 -23 -6 -20 11 7 35 46 28 46 -3 0 -12 -12
-22 -26z"/>
<path d="M3270 4586 c0 -2 8 -10 18 -17 15 -13 16 -12 3 4 -13 16 -21 21 -21
13z"/>
<path d="M4525 4513 c-52 -57 -60 -70 -33 -49 30 22 116 126 105 126 -1 0 -34
-35 -72 -77z"/>
<path d="M5684 4540 c33 -45 57 -69 98 -99 28 -20 27 -18 -7 15 -22 21 -57 56
-78 79 -36 37 -37 38 -13 5z"/>
<path d="M7009 4533 c-13 -16 -12 -17 4 -4 16 13 21 21 13 21 -2 0 -10 -8 -17
-17z"/>
<path d="M4611 4509 c-27 -25 -36 -28 -43 -18 -8 11 -11 11 -15 1 -2 -7 -11
-19 -19 -26 -10 -11 -11 -15 -2 -18 9 -3 7 -13 -6 -34 l-19 -29 33 30 c32 30
115 125 108 125 -1 0 -18 -14 -37 -31z"/>
<path d="M5656 4468 c22 -24 55 -56 74 -72 19 -16 4 3 -35 42 -76 79 -101 97
-39 30z"/>
<path d="M6964 4478 l-19 -23 23 19 c12 11 22 21 22 23 0 8 -8 2 -26 -19z"/>
<path d="M3380 4467 c0 -7 101 -89 105 -85 2 2 -20 23 -50 47 -30 23 -55 40
-55 38z"/>
<path d="M6784 4412 c-33 -26 -69 -53 -80 -60 -10 -7 2 -2 29 12 36 19 47 21
47 10 0 -8 -5 -14 -11 -14 -8 0 -8 -4 0 -14 10 -11 7 -19 -11 -37 -29 -28 -9
-17 67 36 33 24 71 56 85 71 l25 29 -26 -22 c-26 -24 -55 -31 -43 -11 4 7 3 8
-4 4 -7 -4 -12 -16 -12 -28 0 -14 -5 -18 -16 -14 -9 3 -22 6 -30 6 -8 0 -14 5
-14 11 0 5 5 7 12 3 7 -4 8 -3 4 5 -4 7 2 15 16 20 13 6 19 10 14 10 -5 1 -3
8 4 16 18 22 11 18 -56 -33z m24 -61 c-7 -11 -16 -17 -22 -14 -5 3 -1 12 9 20
25 18 27 17 13 -6z"/>
<path d="M3314 4432 c23 -26 109 -93 151 -116 30 -17 30 -17 5 1 -13 10 -58
45 -100 77 -41 33 -66 50 -56 38z"/>
<path d="M4429 4423 c-13 -16 -12 -17 4 -4 16 13 21 21 13 21 -2 0 -10 -8 -17
-17z"/>
<path d="M3520 4361 c14 -11 30 -21 35 -21 11 0 -7 14 -40 31 -13 7 -12 3 5
-10z"/>
<path d="M4265 4324 c-38 -19 -56 -31 -40 -27 30 6 92 37 110 54 13 13 7 11
-70 -27z"/>
<path d="M4388 4314 c-38 -20 -36 -28 2 -9 17 9 30 18 30 20 0 7 -1 6 -32 -11z"/>
<path d="M5980 4315 c14 -8 30 -14 35 -14 6 0 -1 6 -15 14 -14 8 -29 14 -35
14 -5 0 1 -6 15 -14z"/>
<path d="M5840 4316 c0 -3 9 -10 20 -16 11 -6 20 -8 20 -6 0 3 -9 10 -20 16
-11 6 -20 8 -20 6z"/>
<path d="M4314 4294 c4 -11 -1 -18 -14 -21 -11 -3 -20 -9 -20 -14 0 -10 58 9
66 22 3 5 0 8 -8 7 -7 -2 -12 3 -10 10 1 6 -3 12 -9 12 -6 0 -8 -7 -5 -16z"/>
<path d="M3507 4289 c7 -7 15 -10 18 -7 3 3 -2 9 -12 12 -14 6 -15 5 -6 -5z"/>
<path d="M4285 4290 c3 -5 8 -10 11 -10 2 0 4 5 4 10 0 6 -5 10 -11 10 -5 0
-7 -4 -4 -10z"/>
<path d="M6705 4280 c-3 -6 1 -7 9 -4 18 7 21 14 7 14 -6 0 -13 -4 -16 -10z"/>
<path d="M3758 4263 c7 -3 16 -2 19 1 4 3 -2 6 -13 5 -11 0 -14 -3 -6 -6z"/>
<path d="M6650 4255 c-14 -8 -20 -14 -15 -14 6 0 21 6 35 14 14 8 21 14 15 14
-5 0 -21 -6 -35 -14z"/>
<path d="M3828 4253 c12 -2 32 -2 45 0 12 2 2 4 -23 4 -25 0 -35 -2 -22 -4z"/>
<path d="M4008 4253 c12 -2 32 -2 45 0 12 2 2 4 -23 4 -25 0 -35 -2 -22 -4z"/>
<path d="M5960 4250 c8 -5 20 -10 25 -10 6 0 3 5 -5 10 -8 5 -19 10 -25 10 -5
0 -3 -5 5 -10z"/>
<path d="M6230 4249 c25 -4 61 -7 80 -7 l35 0 -40 9 c-22 4 -58 8 -80 7 l-40
-1 45 -8z"/>
<path d="M6378 4253 c12 -2 32 -2 45 0 12 2 2 4 -23 4 -25 0 -35 -2 -22 -4z"/>
<path d="M3918 4243 c12 -2 30 -2 40 0 9 3 -1 5 -23 4 -22 0 -30 -2 -17 -4z"/>
<path d="M4240 4240 c-8 -5 -10 -10 -5 -10 6 0 17 5 25 10 8 5 11 10 5 10 -5
0 -17 -5 -25 -10z"/>
<path d="M4198 4223 c7 -3 16 -2 19 1 4 3 -2 6 -13 5 -11 0 -14 -3 -6 -6z"/>
<path d="M6568 4223 c7 -3 16 -2 19 1 4 3 -2 6 -13 5 -11 0 -14 -3 -6 -6z"/>
<path d="M6505 4210 c-13 -5 -14 -9 -5 -9 8 0 24 4 35 9 13 5 14 9 5 9 -8 0
-24 -4 -35 -9z"/>
<path d="M3728 4203 c7 -3 16 -2 19 1 4 3 -2 6 -13 5 -11 0 -14 -3 -6 -6z"/>
<path d="M4098 4205 c-3 -3 -63 -10 -134 -15 l-129 -9 125 4 c69 2 139 8 155
14 23 7 25 9 9 10 -11 1 -23 -1 -26 -4z"/>
<path d="M6108 4203 c7 -3 16 -2 19 1 4 3 -2 6 -13 5 -11 0 -14 -3 -6 -6z"/>
<path d="M3783 4193 c9 -2 23 -2 30 0 6 3 -1 5 -18 5 -16 0 -22 -2 -12 -5z"/>
<path d="M6163 4193 c9 -2 25 -2 35 0 9 3 1 5 -18 5 -19 0 -27 -2 -17 -5z"/>
<path d="M6433 4193 c9 -2 25 -2 35 0 9 3 1 5 -18 5 -19 0 -27 -2 -17 -5z"/>
<path d="M6263 4183 c26 -2 67 -2 90 0 23 2 2 3 -48 3 -49 0 -68 -1 -42 -3z"/>
<path d="M5968 3543 c-105 -89 -251 -165 -401 -208 -160 -46 -259 -58 -472
-59 -291 0 -481 36 -709 135 -49 21 -98 39 -107 39 -10 0 -26 -11 -35 -25 -15
-23 -15 -27 1 -51 26 -40 212 -117 373 -155 418 -97 863 -65 1179 87 139 66
303 193 303 233 0 26 -26 51 -54 51 -12 0 -47 -21 -78 -47z"/>
<path d="M5360 2897 c-77 -28 -97 -31 -210 -31 -102 -1 -141 3 -212 23 -100
27 -121 21 -116 -33 4 -42 44 -60 177 -82 123 -20 235 -15 355 16 131 33 173
73 130 121 -21 23 -19 23 -124 -14z"/>
</g>
</svg>
